<?xml version="1.0" ?><svg id="Layer_1" style="enable-background:new 0 0 512 512;" version="1.1" viewBox="0 0 512 512" xml:space="preserve" xmlns="http://www.w3.org/2000/svg" xmlns:xlink="http://www.w3.org/1999/xlink"><style type="text/css">
	.st0{fill:#3B4652;}
	.st1{fill:#2B79C2;}
</style><g><path class="st1" d="M124.1,139.6v-25l2.9-3.8c0,0,0.1-0.2,0.3-0.4l4.1-6.4h300.9V66.2H78.6v78.2c10.6-1.9,22-3.3,34-4.2   C116.4,140,120.2,139.7,124.1,139.6z"/><path class="st0" d="M139,118L139,118l-0.9,0v1.3c0.1-0.1,0.2-0.3,0.3-0.4c-0.1,0.1-0.2,0.3-0.3,0.4v19.8c2.3,0,4.4,0,6.7,0   c21.1,0,42.1,1.5,60.7,4.4c10,1.6,19.3,3.5,27.5,5.8c4.4,1.2,8.4,2.4,12.2,3.8h181.2c0,6.7,2.2,13,5.9,18   c5.5,7.5,14.4,12.3,24.4,12.3v41.3c-10,0-18.9,4.9-24.4,12.3c-0.7,0.9-1.3,1.8-1.9,2.8c-2.6,4.5-4.1,9.7-4.1,15.2c0,0.5,0,1,0,1.5   H283.2v35.1h208.5V118H139z"/><path class="st1" d="M20.2,360.5v48.7c0,20.2,55.7,36.6,124.5,36.6c68.8,0,124.5-16.4,124.5-36.6v-48.7   c-26.7,20.1-85.7,26.1-124.5,26.1S46.9,380.6,20.2,360.5z"/><path class="st0" d="M224.4,305.3c-23.1,5.3-50.6,8.1-79.6,8.1c-38.8,0-97.8-6.1-124.5-26.1V336c0,20.2,55.7,36.6,124.5,36.6   c68.8,0,124.5-16.4,124.5-36.6v-48.8c-1.8,1.3-3.7,2.7-5.9,4C253.7,296.9,240.6,301.6,224.4,305.3z M216.7,344.1   c-20.3,4.6-45.9,7.2-72,7.2c-3.9,0-7-3.1-7-7c0-3.9,3.1-7,7-7c25.1,0,49.5-2.4,68.9-6.8c3.8-0.9,7.5,1.5,8.4,5.3   C222.9,339.5,220.5,343.2,216.7,344.1z"/><path class="st0" d="M229.2,162.8c-7.8-2.1-16.5-3.9-26-5.4c-17.4-2.7-37.3-4.3-58.5-4.3c-2.2,0-4.4,0-6.7,0   c-8.4,0.1-16.6,0.5-24.4,1.1c-12.6,1-24.4,2.5-35.1,4.4c-35,6.5-58.3,17.9-58.3,31c0,0.3,0,0.6,0,0.9c0,0,0,0.1,0,0.1   c0,0.3,0.1,0.6,0.1,0.8c0,0,0,0,0,0.1c0,0.3,0.1,0.5,0.2,0.8c0,0.1,0,0.1,0.1,0.2c0.1,0.3,0.2,0.6,0.3,0.9c0.1,0.3,0.2,0.6,0.3,0.8   c0,0,0,0.1,0,0.1c0.1,0.3,0.3,0.6,0.4,0.9c0.2,0.3,0.3,0.6,0.5,0.9c0.1,0.2,0.3,0.5,0.5,0.7c0.1,0.1,0.2,0.3,0.3,0.4   c0.8,1.2,1.9,2.4,3.1,3.5c0.2,0.2,0.5,0.4,0.7,0.6c0.8,0.7,1.8,1.4,2.8,2.2c0.2,0.2,0.5,0.3,0.7,0.5c0.3,0.2,0.7,0.5,1,0.7   c0.4,0.3,0.8,0.5,1.3,0.8c0.6,0.4,1.2,0.7,1.9,1.1c0.6,0.3,1.2,0.7,1.9,1c2.3,1.2,4.7,2.3,7.4,3.4c0.7,0.3,1.3,0.5,2,0.8   c0.1,0,0.2,0.1,0.3,0.1c0.3,0.1,0.7,0.3,1,0.4c4.4,1.6,9.3,3.2,14.5,4.5c1,0.3,1.9,0.5,2.9,0.7c0.5,0.1,1,0.2,1.5,0.4   c4,1,8.2,1.8,12.6,2.7c1.2,0.2,2.3,0.4,3.5,0.6c1,0.2,2.1,0.4,3.2,0.5c0.9,0.1,1.7,0.3,2.6,0.4c3.7,0.6,7.5,1.1,11.5,1.5   c1.2,0.1,2.4,0.3,3.7,0.4c1.2,0.1,2.5,0.3,3.7,0.4c0.8,0.1,1.7,0.2,2.5,0.2c0.5,0,1,0.1,1.5,0.1c3,0.2,6,0.5,9,0.6   c2,0.1,4.1,0.2,6.1,0.3c1,0,2.1,0.1,3.1,0.1c2.1,0.1,4.2,0.1,6.3,0.2c1,0,2,0,2.9,0.1c2.2,0,4.4,0,6.7,0c1.4,0,2.8,0,4.2,0   c1.4,0,2.8,0,4.1-0.1c1.2,0,2.4-0.1,3.5-0.1c1.7,0,3.4-0.1,5.1-0.2c1.2,0,2.4-0.1,3.5-0.2c0.5,0,1,0,1.5-0.1c1,0,2-0.1,3.1-0.2   c2.4-0.1,4.8-0.3,7.2-0.5c0,0,0,0,0,0c0.4,0,0.8-0.1,1.1-0.1c0.7-0.1,1.5-0.1,2.2-0.2c1.1-0.1,2.2-0.2,3.3-0.3   c4.2-0.4,8.3-0.9,12.2-1.4c0.9-0.1,1.8-0.2,2.8-0.4c0.9-0.1,1.8-0.3,2.7-0.4c0.6-0.1,1.3-0.2,1.9-0.3c0.8-0.1,1.6-0.3,2.4-0.4   c0.7-0.1,1.3-0.2,2-0.3c5.3-0.9,10.3-1.9,15-3.1c0.8-0.2,1.6-0.4,2.4-0.6c3.4-0.8,6.6-1.7,9.7-2.7c0.5-0.2,1-0.3,1.6-0.5   c0.8-0.3,1.7-0.5,2.5-0.8c0.6-0.2,1.2-0.4,1.8-0.6c0.5-0.2,1-0.4,1.5-0.5c0.6-0.2,1.2-0.4,1.7-0.7c2.3-0.9,4.4-1.8,6.3-2.7   c0.5-0.2,0.9-0.4,1.4-0.7c0.5-0.3,1-0.5,1.6-0.8c0.7-0.4,1.4-0.7,2.1-1.1c0.4-0.2,0.7-0.4,1.1-0.6c0.6-0.3,1.1-0.7,1.7-1   c0.5-0.3,0.9-0.6,1.3-0.9c0.4-0.3,0.8-0.6,1.2-0.9c0,0,0,0,0,0c0.4-0.3,0.8-0.6,1.1-0.9c0.4-0.3,0.7-0.6,1.1-0.9   c0.7-0.6,1.3-1.2,1.9-1.8c0.3-0.3,0.5-0.6,0.8-0.8c0.7-0.8,1.3-1.7,1.8-2.5c0.2-0.3,0.4-0.6,0.5-0.9c0.1-0.2,0.2-0.4,0.3-0.6   c0.1-0.1,0.1-0.3,0.2-0.5c0-0.1,0-0.1,0.1-0.2c0.1-0.2,0.1-0.4,0.2-0.6c0.2-0.6,0.4-1.2,0.5-1.8c0-0.1,0-0.2,0.1-0.3   c0-0.3,0.1-0.5,0.1-0.8c0-0.3,0-0.6,0-0.9c0-3.5-1.7-6.9-4.9-10.2C258,173,245.7,167.2,229.2,162.8z"/><path class="st0" d="M283.2,188.1L283.2,188.1c0,0.5,0,1,0,1.5V188.1z"/><path class="st1" d="M265.2,217.1h-0.3c-0.5,0.3-0.9,0.6-1.4,0.9c-0.4,0.2-0.8,0.5-1.2,0.7l-0.1,0.1c-0.8,0.4-1.6,0.9-2.4,1.3   c-0.6,0.3-1.2,0.6-1.8,0.9c-0.3,0.2-0.7,0.3-1,0.5l-0.7,0.3c-2.4,1.1-4.8,2.1-7.2,3l-2,0.8c-0.5,0.2-1.1,0.4-1.6,0.6   c-0.6,0.2-1.3,0.5-2,0.7c-0.8,0.3-1.8,0.6-2.7,0.9c-0.6,0.2-1.2,0.4-1.8,0.6c-3.2,1-6.7,2-10.3,2.9c-0.9,0.2-1.8,0.4-2.7,0.6   c-5.1,1.2-10.4,2.3-15.8,3.2l-2.4,0.4c-0.8,0.1-1.6,0.3-2.4,0.4c-0.6,0.1-1.3,0.2-2,0.3c-0.9,0.1-1.8,0.3-2.7,0.4   c-1,0.2-2,0.3-3,0.4c-4,0.5-8.2,1-12.6,1.5c-0.5,0-1.1,0.1-1.6,0.2l0,0l-5.2,0.4l-6.4,0.6l-0.1-0.1c-0.4,0-0.8,0.1-1.2,0.1   c-1,0.1-2,0.1-3.1,0.2c-0.5,0-1.1,0.1-1.6,0.1c-1.2,0.1-2.5,0.1-3.7,0.2c-1.8,0.1-3.5,0.1-5.3,0.2c-1.2,0-2.4,0.1-3.6,0.1l-0.1,0   c-1.4,0-2.8,0-4.1,0.1c-1.4,0-2.9,0-4.3,0c-2.3,0-4.6,0-6.8-0.1c-1.1,0-2.1,0-3.1-0.1c-2.2-0.1-4.4-0.1-6.5-0.2c-1,0-2-0.1-3-0.1   l-0.1,0c-2.1-0.1-4.3-0.2-6.4-0.3c-3.1-0.2-6.2-0.4-9.2-0.7c-0.6,0-1.1-0.1-1.6-0.1c-0.9-0.1-1.7-0.2-2.6-0.2   c-1.3-0.1-2.6-0.3-3.9-0.4c-1.3-0.1-2.5-0.3-3.8-0.4c-4.1-0.5-8.1-1-11.9-1.6c-1-0.1-1.9-0.3-2.9-0.5c-1.1-0.2-2.2-0.3-3.3-0.5   c-1.2-0.2-2.5-0.4-3.7-0.7c-4.7-0.9-9.1-1.8-13.2-2.8c-0.5-0.1-1.1-0.3-1.6-0.4l-0.8-0.2c-0.8-0.2-1.7-0.4-2.5-0.6   c-5.7-1.5-10.9-3.1-15.7-4.9c-0.4-0.2-0.8-0.3-1.3-0.5c-0.1-0.1-0.3-0.1-0.4-0.2c-0.8-0.3-1.5-0.6-2.3-0.9   c-3.1-1.3-5.9-2.6-8.5-3.9l-0.5-0.3c-0.6-0.3-1.2-0.6-1.8-1c-0.8-0.4-1.5-0.9-2.2-1.3c-0.6-0.3-1.2-0.7-1.7-1.1   c-0.3-0.2-0.6-0.4-0.9-0.6l-1.4-1c-0.4-0.3-0.7-0.5-1.1-0.8v48.8c0,20.2,55.7,36.6,124.5,36.6c28.8,0,55.4-2.9,76.5-7.7   c29.2-6.7,48-17.1,48-28.9v-48.7c-0.1,0.1-0.2,0.2-0.3,0.2L265.2,217.1z"/><path class="st0" d="M334.3,204.8c0-10.7-8.7-19.3-19.3-19.3c-10.7,0-19.3,8.7-19.3,19.3c0,10.7,8.7,19.3,19.3,19.3   C325.6,224.2,334.3,215.5,334.3,204.8z"/></g></svg>